<svg width="59" height="59" fill="none" xmlns="http://www.w3.org/2000/svg"><path fill="#E5E5E5" d="M0 0h59v59H0z"/><path d="M35.91 24.68c1.2-.93.91-1.68-.65-1.68H24.73c-1.56 0-1.85.76-.66 1.68l3.75 2.9a3.7 3.7 0 004.35 0l3.74-2.9z" fill="#D22856"/><path d="M32.91 29.5l-2.21 1.75c-.08.04-.17.08-.26.1l-.1.05c-.1.05-.22.07-.34.09l-.33-.06-.12-.07a1.18 1.18 0 01-.24-.13l-2.23-1.73-3.9-2.97c-1.18-.93-2.18-.5-2.18.95v5.86a2.48 2.48 0 00.82 1.87 2.87 2.87 0 002.01.79h12.32a3.04 3.04 0 002.02-.78c.27-.25.48-.54.62-.87.14-.32.21-.67.21-1.02v-5.85c0-1.45-1-1.86-2.18-.93l-3.91 2.95z" fill="#D22856"/></svg>